<?xml version="1.0" encoding="utf-8"?>
<!-- Generator: Adobe Illustrator 15.0.2, SVG Export Plug-In  -->
<!DOCTYPE svg PUBLIC "-//W3C//DTD SVG 1.1//EN" "http://www.w3.org/Graphics/SVG/1.1/DTD/svg11.dtd" [
	<!ENTITY ns_flows "http://ns.adobe.com/Flows/1.0/">
]>
<svg version="1.1"
	 xmlns="http://www.w3.org/2000/svg" xmlns:xlink="http://www.w3.org/1999/xlink" xmlns:a="http://ns.adobe.com/AdobeSVGViewerExtensions/3.0/"
	 x="0px" y="0px" width="24px" height="24px" viewBox="-4.143 -0.774 24 24"
	 overflow="visible" enable-background="new -4.143 -0.774 24 24" xml:space="preserve">
<defs>
</defs>
<path fill="#80FF80" d="M15.715,11.226c0,10.323-1.268,11.094-7.395,11.094S0,21.934,0,11.226C0,0.518,2.193,0.132,8.32,0.132
	S15.715,0.864,15.715,11.226z"/>
<g>
	<g>
		<line fill="none" stroke="#000000" stroke-width="2" stroke-miterlimit="10" x1="0.857" y1="5.226" x2="8.857" y2="5.226"/>
		<g>
			<path d="M14.791,4.755c-2.84,1.054-6.363,2.852-8.547,4.756l1.72-4.756L6.244,0C8.428,1.904,11.951,3.702,14.791,4.755z"/>
		</g>
	</g>
</g>
<g>
	<path d="M7.213,16.974l-0.188-2.807c-0.035-0.547-0.053-0.939-0.053-1.178c0-0.324,0.085-0.577,0.255-0.759
		s0.394-0.272,0.671-0.272c0.336,0,0.561,0.116,0.674,0.349s0.17,0.567,0.17,1.005c0,0.258-0.014,0.52-0.041,0.785l-0.252,2.889
		c-0.027,0.344-0.086,0.607-0.176,0.791s-0.238,0.275-0.445,0.275c-0.211,0-0.357-0.089-0.439-0.267S7.248,17.337,7.213,16.974z
		 M7.863,20.83c-0.238,0-0.446-0.077-0.624-0.231s-0.267-0.37-0.267-0.647c0-0.242,0.085-0.448,0.255-0.618s0.378-0.255,0.624-0.255
		s0.456,0.085,0.63,0.255s0.261,0.376,0.261,0.618c0,0.273-0.088,0.488-0.264,0.645S8.098,20.83,7.863,20.83z"/>
</g>
</svg>
